<?xml version="1.0" standalone="no"?>
<!DOCTYPE svg PUBLIC "-//W3C//DTD SVG 20010904//EN"
 "http://www.w3.org/TR/2001/REC-SVG-20010904/DTD/svg10.dtd">
<svg version="1.0" xmlns="http://www.w3.org/2000/svg"
 width="512.000000pt" height="512.000000pt" viewBox="0 0 512.000000 512.000000"
 preserveAspectRatio="xMidYMid meet">
<metadata>
Created by potrace 1.14, written by Peter Selinger 2001-2017
</metadata>
<g transform="translate(0.000000,512.000000) scale(0.100000,-0.100000)"
fill="#000000" stroke="none">
<path d="M295 4947 c-95 -15 -166 -85 -184 -180 -6 -33 -11 -682 -14 -1748
l-5 -1696 1437 1 1436 1 48 24 c59 29 90 69 113 146 15 52 18 109 19 438 l1
377 -1028 0 -1028 0 0 1320 c0 726 -3 1321 -7 1321 -36 6 -750 2 -788 -4z"/>
<path d="M2170 3948 c-79 -24 -133 -76 -154 -148 -13 -43 -15 -116 -13 -437
l2 -386 1025 -1 1025 -1 -1 -1105 c0 -608 -2 -1195 -3 -1305 -2 -110 -2 -207
-2 -216 1 -14 42 -16 409 -15 391 2 409 2 452 22 58 28 94 67 116 129 16 47
17 152 18 1763 1 941 -1 1713 -4 1713 -3 1 -636 3 -1407 4 -1347 2 -1404 1
-1463 -17z"/>
</g>
</svg>
